# xmcd
#
# Track frame offsets: 
#        182
#        15055
#        30445
#        42397
#        58515
#        74847
#        92530
#        112240
#        123152
#        141002
#        155500
#        168627
#        184725
#        203750
#        216902
#        231945
#
# Disc length: 3285 seconds
#
# Revision: 9
# Processed by: cddbd v1.5.2PL0 Copyright (c) Steve Scherf et al.
# Submitted via: ExactAudioCopy v1.0b4
#
DISCID=de0cd310
DTITLE=Various Artist - Number One Country Hit Mix
DYEAR=1993
DGENRE=Country
TTITLE0=Alabama - Take A Little Trip
TTITLE1=Billy Ray Cyrus - Achy Breaky Heart
TTITLE2=Tanya Tucker - It's A Little Too Late
TTITLE3=Travis Tritt - Can I Trust You With My Heart
TTITLE4=Tracy Lawrence - Sticks And Stones
TTITLE5=Doug Stone - Too Busy Being In Love
TTITLE6=Brooks And Dunn - Neon Moon
TTITLE7=Alan Jackson - She's Got The Rhythm (And I Got The Blues)
TTITLE8=Wynonna Judd - No One Else On Earth
TTITLE9=Collin Raye - In This Life
TTITLE10=Sammy Kershaw - She Don't Know She's Beautiful
TTITLE11=Clint Black - When My Ship Comes In
TTITLE12=Mark Chestnutt - I'll Think Of Something
TTITLE13=John Anderson - Straight Tequila Night
TTITLE14=Billy Ray Dean - If There Hadn't Been You
TTITLE15=Sawyer Brown - Some Girls Do
EXTD=
EXTT0=
EXTT1=
EXTT2=
EXTT3=
EXTT4=
EXTT5=
EXTT6=
EXTT7=
EXTT8=
EXTT9=
EXTT10=
EXTT11=
EXTT12=
EXTT13=
EXTT14=
EXTT15=
PLAYORDER=
